<?xml version="1.0" encoding="UTF-8" standalone="no"?>
<!DOCTYPE svg PUBLIC "-//W3C//DTD SVG 1.1//EN"
 "http://www.w3.org/Graphics/SVG/1.1/DTD/svg11.dtd">
<!-- Generated by graphviz version 12.2.1 (20241206.2353)
 -->
<!-- Pages: 1 -->
<svg width="199pt" height="304pt"
 viewBox="0.00 0.00 198.75 304.00" xmlns="http://www.w3.org/2000/svg" xmlns:xlink="http://www.w3.org/1999/xlink">
<g id="graph0" class="graph" transform="scale(1 1) rotate(0) translate(4 300)">
<polygon fill="#0d1117" stroke="none" points="-4,4 -4,-300 194.75,-300 194.75,4 -4,4"/>
<!-- node_System(0) -->
<g id="node1" class="node">
<title>node_System(0)</title>
<g id="a_node1"><a xlink:title="bevy_window::system::close_when_requested">
<polygon fill="lightgrey" stroke="black" points="164.5,-36 26.25,-36 26.25,0 164.5,0 164.5,-36"/>
<text text-anchor="middle" x="95.38" y="-12.95" font-family="Times New Roman,serif" font-size="14.00">close_when_requested</text>
</a>
</g>
</g>
<!-- node_System(1) -->
<g id="node2" class="node">
<title>node_System(1)</title>
<g id="a_node2"><a xlink:title="bevy_app::terminal_ctrl_c_handler::TerminalCtrlCHandlerPlugin::exit_on_flag">
<polygon fill="lightgrey" stroke="black" points="137.5,-83 53.25,-83 53.25,-47 137.5,-47 137.5,-83"/>
<text text-anchor="middle" x="95.38" y="-59.95" font-family="Times New Roman,serif" font-size="14.00">exit_on_flag</text>
</a>
</g>
</g>
<!-- node_System(2) -->
<g id="node3" class="node">
<title>node_System(2)</title>
<g id="a_node3"><a xlink:title="bevy_render::view::window::screenshot::trigger_screenshots">
<polygon fill="lightgrey" stroke="black" points="155.88,-130 34.88,-130 34.88,-94 155.88,-94 155.88,-130"/>
<text text-anchor="middle" x="95.38" y="-106.95" font-family="Times New Roman,serif" font-size="14.00">trigger_screenshots</text>
</a>
</g>
</g>
<!-- node_System(3) -->
<g id="node4" class="node">
<title>node_System(3)</title>
<g id="a_node4"><a xlink:title="bevy_core_pipeline::oit::check_msaa">
<polygon fill="lightgrey" stroke="black" points="136.75,-177 54,-177 54,-141 136.75,-141 136.75,-177"/>
<text text-anchor="middle" x="95.38" y="-153.95" font-family="Times New Roman,serif" font-size="14.00">check_msaa</text>
</a>
</g>
</g>
<!-- node_System(4) -->
<g id="node5" class="node">
<title>node_System(4)</title>
<g id="a_node5"><a xlink:title="game::global_states::splashscreen::splashscreen_update_system">
<polygon fill="lightgrey" stroke="black" points="181.38,-296 9.38,-296 9.38,-260 181.38,-260 181.38,-296"/>
<text text-anchor="middle" x="95.38" y="-272.95" font-family="Times New Roman,serif" font-size="14.00">splashscreen_update_system</text>
</a>
</g>
</g>
<!-- node_System(5) -->
<g id="node6" class="node">
<title>node_System(5)</title>
<g id="a_node6"><a xlink:title="game::global_states::main_menu::main_menu_interaction_system">
<polygon fill="lightgrey" stroke="black" points="190.75,-224 0,-224 0,-188 190.75,-188 190.75,-224"/>
<text text-anchor="middle" x="95.38" y="-200.95" font-family="Times New Roman,serif" font-size="14.00">main_menu_interaction_system</text>
</a>
</g>
</g>
<!-- node_System(4)&#45;&gt;node_System(5) -->
<g id="edge1" class="edge">
<title>node_System(4)&#45;&gt;node_System(5)</title>
<path fill="none" stroke="#c93526" stroke-width="2" d="M95.38,-259.59C95.38,-248.71 95.38,-235 95.38,-224.17"/>
<g id="a_edge1&#45;label"><a xlink:title="splashscreen_update_system — main_menu_interaction_system">
<polygon fill="#c6e6ff" stroke="none" points="11.38,-231.75 11.38,-252.25 148.88,-252.25 148.88,-231.75 11.38,-231.75"/>
<text text-anchor="start" x="13.38" y="-236.95" font-family="Times New Roman,serif" font-size="14.00" fill="#c93526">NextState&lt;GlobalState&gt;</text>
</a>
</g>
</g>
</g>
</svg>
